<svg xmlns="http://www.w3.org/2000/svg" viewBox="0 0 800 487.11"><defs><style>.cls-1{fill:#41b883;}.cls-2{fill:#35495e;}</style></defs><g id="图层_2" data-name="图层 2"><g id="图层_1-2" data-name="图层 1"><path class="cls-1" d="M486.23.44c14.34,0,28.71-.73,43,.17,22.23,1.36,27.39,9.92,16.87,29.52-16.11,30-31,61.08-50.84,88.33-25,34.45-25.86,63.58-.56,99.08,29.2,40.86,26.21,42.5,51.79-1.81C583.68,151.35,621.75,87.48,658.71,23c9-15.83,20.57-23.46,38.84-23q40.31,1.16,80.71.11C801.65-.43,804.71,9.8,794.34,28q-43.85,77.09-87.81,154-78.3,136.26-156.92,272.41c-1.78,3.1-3.49,6.19-5.43,9.26-19.42,31.56-28.65,31.32-47.13-.87q-41.55-72.22-83.53-144.19c-13.43-23.11-18.41-23.6-31.91-.8C353.28,365.56,325.92,414,298.08,462c-6.12,10.44-10.44,25.23-25.47,24.36-13.33-.63-16.88-14.93-22.52-24.64-54.85-94.39-52.21-63.28-1-154.36C299.51,217.65,351.54,128.55,402.7,39.21,425.11.13,425.22.13,486.23.44Z"/><path class="cls-2" d="M155.18.82c39.4,0,78.76-.28,118.33,0,32.19.32,36.23,6.68,20.88,34Q233.21,142.37,171.64,249.25c-14.79,25.68-26.55,26.27-42.08,0Q66.92,143.07,6.43,35.42C-6.93,11.75.51,1.31,29,.93,71,.37,113.1.79,155.18.82Z"/></g></g></svg>