<svg xmlns="http://www.w3.org/2000/svg" viewBox="0 0 800 371.59"><defs><style>.cls-1{fill:#41b883;}.cls-2{fill:#35495e;}</style></defs><g id="图层_2" data-name="图层 2"><g id="图层_1-2" data-name="图层 1"><path class="cls-1" d="M554.88,370.94a120.22,120.22,0,0,0-17.6,0,22,22,0,0,1-25-14.26c-4.2-9-9.32-17.6-14.19-26.27-4.13-7.42-1.51-10,6.57-9.92,15.5,0,31.07-.39,46.57,0a14.71,14.71,0,0,0,15-8.21c14.19-25.48,28.7-50.84,42.89-76.32,16.55-29.63,32.84-59.12,49.46-89.07S692,87,708.91,57.1c3.22-5.65,3.48-9.07-4.33-9.07-14.78,0-29.43-2.89-44.27,0a13.68,13.68,0,0,0-11.83,7.23q-51.83,90.24-104,180.24C539,245,533,254.28,528.15,264.07A11.71,11.71,0,0,1,517,271.56H473.5c-6.57,0-9.85-4.14-12.61-9.07C445.45,235,430.21,207.38,414.58,180c-4-7-6.57-18.39-14.32-18.65s-9.46,11.3-13.14,17.93Q334.91,270,283.47,361.35a17.53,17.53,0,0,1-18.06,10.11c-15.5-.72-31.07-.65-46.57,0a16.94,16.94,0,0,1-16.75-10.11c-6.57-11-12.41-22.14-18.79-32.84-3.74-6.57-1.83-8.35,5.19-8.41,16.88,0,33.7-1.25,50.58-1.18a14.67,14.67,0,0,0,14.52-8.74q44.66-79.55,89.85-158.63c9-15.83,18.4-31.4,27.39-47.23A8.7,8.7,0,0,1,379,99.2h39.41c6.57,0,8.67,4,11.43,8.74q28.57,49.51,57.67,98.52c7.16,12,7.49,11.83,14.38,0L581.75,69.91c12.15-20.7,24.63-41.25,36.52-62.08A14.25,14.25,0,0,1,632.52.08H788.65c13.14,0,13.8,1.32,7.43,12.29Q758.64,77,721.26,141.7C688,199.57,655.05,257.37,621.88,315.37c-9.2,16.09-18.92,31.92-27.92,48.14a13.86,13.86,0,0,1-14.25,7.76c-8.34-.6-16.55-.33-24.83-.33Z"/><path class="cls-2" d="M88.32,1.2H165.9a14,14,0,0,1,14.71,8.28c8.87,16.88,18.33,33.69,27.92,50.38a11.76,11.76,0,0,1,0,14.12c-6.57,9.92-13.14,20.23-19,30.67-4.13,7.29-6.56,5.78-10.18-.46-9.06-15.83-18.72-31.26-27.78-47a14.44,14.44,0,0,0-14.65-8.73c-15.11.65-30.34.52-45.45,0-8.74,0-10.38,1.64-5.72,9.52q38.73,66.32,77.51,132.62c4.34,7.42,8.93,14.71,13.14,22.26s6.57,7.62,11.16,0c21-36.71,42.31-73.17,63.52-109.75q27.2-46.9,53.93-93.8A14,14,0,0,1,318.81,1Q401.12,1.47,483,1a12.67,12.67,0,0,1,13.86,8.28c7.95,17.08,16.69,34,25.36,50.71a12.08,12.08,0,0,1,0,13.46c-6.57,10.45-13.14,21.15-18.79,32-3.28,5.85-5.32,6.57-8.8,0-9.07-16.55-18.79-32.84-27.92-49.33a13.78,13.78,0,0,0-14.25-8q-53.34.59-106.54,0A13.74,13.74,0,0,0,332,56c-38.95,68-78.29,135.77-117.24,203.62a17.61,17.61,0,0,1-18.59,11,265.6,265.6,0,0,0-34.09,0,14.77,14.77,0,0,1-15.5-8.94c-35.8-63-72.26-125.91-108-188.84L4.31,13.22C-2.25,1.46-2.25,1.46,10.88,1.46Z"/></g></g></svg>