<svg xmlns="http://www.w3.org/2000/svg" viewBox="0 0 800 588.79">
	<defs>
		<style>.cls-1{fill:#1d1d1b;}</style>
	</defs>
	<path id="LOGO" class="cls-1"
	      d="M128.89,385.81,112,323.32,94.59,260.83l-16-62.5L61.7,135.84,45.25,73.35,28.34,10.86A14.1,14.1,0,0,0,11.36.42L11,.52A14.1,14.1,0,0,0,.36,17.41c.07.32.16.65.26,1L18,80.87l16.45,60.61L51.36,204l16.92,64.37,16.44,61.09,16.45,62.49,16.91,62.49a14.12,14.12,0,0,0,13.63,10.34h3.76a14.11,14.11,0,0,0,9.89-17.31l0-.08Zm90.21,95.38-8.92-32.89-16.92-62.49-16.44-62.49L159.9,260.83l-18.32-62.5-15-62.49L109.62,73.35A14.09,14.09,0,1,0,82,78.89c.1.51.24,1,.39,1.51l16.92,61.08L116.2,204l16.45,64.37,16.91,61.09,16.92,62.49,16.91,62.49,8.93,32.89,8,29.6a14.09,14.09,0,0,0,13.62,10.34h3.76a14.1,14.1,0,0,0,9.89-17.31l0-.08ZM667.35,268.34l16.45-62.49,16.91-64.37L717.16,79a14.1,14.1,0,0,0-26.87-8.56c-.15.5-.28,1-.39,1.51L673,134.43l-14.57,63.9-16.91,62.5-16.45,62.49-18.32,62.49L589.82,448.3l-8.92,32.89-8,29.6a14.1,14.1,0,0,0,9.79,17.37l.08,0h3.75a14.09,14.09,0,0,0,13.63-10.34l8-29.6,8.93-32.89L634,392.86l16.45-63.43ZM585.6,329.43l16.91-62.5,16.92-62.49,16.44-63a14.07,14.07,0,0,0-27.23-7.12l0,.07L591.7,196.92l-16.44,62.5-16.92,62.49-6.57,24.9-12.69-27.72L510,256.6l-28.66-61.09a14.1,14.1,0,1,0-25.38,11.75l28.66,61.08,29.14,62.49L541,390.51v2.82l-13.16,47L470.48,320.5,412.69,197.39a14.1,14.1,0,1,0-25.38,11.75l57.33,123.1,72.83,152.24-6.58,24-6.58,24.91-13.16-27.73-31.48-60.14L430.54,383l-16.91-36.65L378.86,272.1l-34.77-75.18v-2.35h-18.8v2.35L296.63,258,260.92,320.5l-12.69,27.72-6.57-24.9-16.92-62.49-16.91-62.5-16.92-62.49a14.09,14.09,0,0,0-26.78,5.64L181,204l16.45,64.37,16.91,61.09,16.45,63.9v7l15,55.45,10.34,38.53,6.58,24,19.73,62v3.29a13.66,13.66,0,0,0,9.87,5.17h3.76a13.17,13.17,0,0,0,8.93-8l31.48-63.43,29.13-62.49,29.13-62.49L400,381.58l5.17,10.81,29.13,62.49,29.13,62.49,29.13,62.49a13.64,13.64,0,0,0,8.93,8h3.76a13.66,13.66,0,0,0,9.87-5.17v-3.29l20.67-62,6.58-24,10.33-38.53,15-55.45v-7ZM329.52,320.5,273.14,442.19l-13.16-47v-2.82l27.25-58.27,28.19-64.37,14.1-34.3,18.79,40.88ZM369.46,383l-29.13,62.49L311.2,508,298,535.69l-6.58-24.9-6.58-24,70.48-152.24,10.34-22.08,18.79,40.88ZM789.05.52a14.1,14.1,0,0,0-17.37,9.79l0,.08L754.75,72.88l-16.45,63-16.91,62.49-16,62.5L688.5,323.32l-17.39,62.49L654.2,448.3A14.08,14.08,0,0,0,664,465.66l.07,0h3.76a14.12,14.12,0,0,0,13.63-10.34l16.91-62.49,16.92-63.43,16.91-62.5,16.92-62.49,16.44-63L782,79l17.38-60.61A14.1,14.1,0,0,0,790,.78C789.69.68,789.37.6,789.05.52Z"/>
</svg>