<svg xmlns="http://www.w3.org/2000/svg" viewBox="0 0 793.47 800"><defs><style>.cls-1{fill:#ff9500;}.cls-2{fill:#ff0098;opacity:0.3;}.cls-2,.cls-3{isolation:isolate;}.cls-3{fill:#ff007a;opacity:0.5;}.cls-4{fill:#ff0074;opacity:0.7;}.cls-5{fill:#f05;}</style></defs><g id="图层_2" data-name="图层 2"><g id="图层_1-2" data-name="图层 1"><path class="cls-1" d="M399.48,533.06A133.16,133.16,0,1,1,514.83,333.32H793.47A400.24,400.24,0,0,0,532.64,23.22l-4.74-1.58-7.66-2.5-8.32-2.66-7.74-2.16L495.11,12l-7.66-1.83-9.82-1.83L470,6.66l-9.73-1.58L452.66,4c-3.24-.5-6.91-.84-10.4-1.25L435.18,2c-3.91,0-7.9-.58-11.81-.75H133.16V134.41H0V400.73c0,6.41,0,12.82.5,19.14A30.4,30.4,0,0,0,.92,426c0,4.33.49,8.32.91,12.82L2.58,446l1.5,11.66c.41,2.41.75,4.82,1.08,7.24.67,3.91,1.41,7.82,2.16,11.73l1,6.08c.92,4.49,2,8.9,3.08,13.23.42,1.58.75,3.24,1.17,4.74,1.5,5.91,3.16,11.82,4.91,17.56.5,1.5,1.08,3,1.5,4.58,1.16,3.5,2.24,7,3.49,10.49C95.87,741.37,324,850.53,532.09,777.14a399.5,399.5,0,0,0,261-310.41H514.83A133.17,133.17,0,0,1,399.48,533.06Z"/><path class="cls-2" d="M400.48,0V133.16H533.64V22.72A398.38,398.38,0,0,0,400.48,0ZM267.32,133.16H400.48V266.32H267.32ZM134.16,266.32H267.32V399.48H134.16ZM23.72,532.64H134.16V399.48H1A398.38,398.38,0,0,0,23.72,532.64Z"/><path class="cls-3" d="M266.32.42H399.48V133.58H266.32ZM133.16,133.58H266.32V266.74H133.16ZM0,266.74H133.16V399.9H0Z"/><path class="cls-4" d="M133.16.42H266.32V133.58H133.16ZM0,133.58H133.16V266.74H0Z"/><path class="cls-5" d="M0,.42H133.16V133.58H0Z"/></g></g></svg>