<svg xmlns="http://www.w3.org/2000/svg" xmlns:xlink="http://www.w3.org/1999/xlink" viewBox="0 0 800 665.86"><defs><style>.cls-1,.cls-6{fill:#f757af;}.cls-1{fill-opacity:0;}.cls-2{fill:url(#未命名的渐变_2);}.cls-3{fill:#ff8d27;}.cls-3,.cls-4{opacity:0.5;}.cls-3,.cls-4,.cls-5{isolation:isolate;}.cls-4{fill:#6d59d1;}.cls-5{fill:#ff0098;opacity:0.6;}.cls-7{fill:#ab8eeb;}.cls-8{fill:#ffbd88;}</style><linearGradient id="未命名的渐变_2" x1="-336.62" y1="463.2" x2="-34.61" y2="765.22" gradientTransform="translate(662.28 -544.7) scale(1.49)" gradientUnits="userSpaceOnUse"><stop offset="0" stop-color="#ffb2c2"/><stop offset="1" stop-color="#f85e8a"/></linearGradient></defs><g id="图层_2" data-name="图层 2"><g id="图层_1-2" data-name="图层 1"><rect class="cls-1" width="800" height="665.86"/><path class="cls-2" d="M457.14,100.64C378.25,101.78,274,124.08,276,214.49c1.88,84,83.26,79,121.26,80.84,54.43,2.22,74.1,22.57,63.32,59.41-15.22,52.95-84.41,38.34-134.73,13.95s-106.51,23-82,76.39,184.51,139.58,288.86,64.4c89.26-64.26,95.86-188.62,18.66-238.27-48.7-31.26-98.89-24.12-103.67-61.5-3.51-27.29,25.33-47.63,74.1-52.42,117.35-11.52,217.86,66.56,201.69,204.46C704.17,526.8,593.55,685.11,346.86,664S46.4,441,76.05,312.84C108.78,171.37,217.51,38.39,413.68,38.39,517.16,38.39,531.57,99.49,457.14,100.64Z"/><path class="cls-3" d="M243.72,445.15c-24.45-53.35,32.2-101,82.25-76.66s119.17,39,134.74-13.95c10.37-36.91-9.37-57.26-63.26-59.48-37.86-1.55-119.24,3.43-121.26-80.84C267.3,124,396.3,74.1,431.87,39.07c-5.72-.41-11.79-.68-18.19-.68a155.55,155.55,0,0,1,18.19.68c8.83-8.69,11.93-16.58,5.66-23.85C406-21.63,128.46-6.41,78,230.79a272.19,272.19,0,0,0-4.65,95.12h0C103,536.7,415.23,566.34,492.17,530.3,391.12,563.92,265.21,491.77,243.72,445.15Z"/><path class="cls-4" d="M724.58,314.06c-65.82-31.13-157.5-45.68-201.63-57.4a175.24,175.24,0,0,1,28.36,14.55c77.2,49.45,70.6,174-18.66,238.27-85,61.31-207.08,15.3-262.73-32.67,92.36,91.75,267,101.05,390.73,59.35,65.28-22,116.27-58.07,133.25-103.61C815.12,376.5,778.34,339.65,724.58,314.06Z"/><path class="cls-5" d="M271.54,650.41a573.39,573.39,0,0,1-106.3-9.7c-160-29.3-162.15-152.11-96.34-273C64.93,475.8,116.87,606.29,271.54,650.41ZM592.41,317.83c28.16,59.08,8.08,142.81-59.76,191.65-104.35,75.18-264.41-11-288.86-64.4S276.19,344,326,368.42s119.17,39,134.4-13.95c10.64-36.84-9.1-57.19-63-59.41-37.86-1.55-119.24,3.43-121.26-80.84-1.68-77.54,74.78-105,146.39-112C304.21,96.87,143.41,230.93,69.11,367.41c-4,107.78,48,238.74,202.63,282.94C538,648.66,649.94,434.57,592.41,317.83Z"/><path class="cls-6" d="M560.61,94.64C552.39,78.81,646.7,11,664.56,46.21S568.63,110.47,560.61,94.64ZM56.44,325.57c6.13-9.49-21.15-38.12-34.83-17.11S50.31,335.07,56.44,325.57Z"/><path class="cls-7" d="M585.33,128c-12.33-15.63,42.11-24.12,45.47-3.77S593.28,137.89,585.33,128Zm98.36,423.13c17.78,8.62,1.21,29.77-10.11,13.47C666.91,555.29,673.65,546.33,683.69,551.12Z"/><path class="cls-8" d="M53,346.93c-10-7.14-32.81-12.66-46.76-3.84-11.72,7.21-10.37,45.27,34.16,24C65.74,355,57.72,350.3,53,346.93Z"/></g></g></svg>